<?xml version="1.0" encoding="UTF-8" standalone="no"?>
<svg
   xmlns:dc="http://purl.org/dc/elements/1.1/"
   xmlns:cc="http://creativecommons.org/ns#"
   xmlns:rdf="http://www.w3.org/1999/02/22-rdf-syntax-ns#"
   xmlns:svg="http://www.w3.org/2000/svg"
   xmlns="http://www.w3.org/2000/svg"
   xmlns:sodipodi="http://sodipodi.sourceforge.net/DTD/sodipodi-0.dtd"
   xmlns:inkscape="http://www.inkscape.org/namespaces/inkscape"
   width="288"
   height="132"
   viewBox="0 0 76.200001 34.925"
   version="1.1"
   id="svg8"
   inkscape:version="1.0 (4035a4fb49, 2020-05-01)"
   sodipodi:docname="godot-logo-text.svg"
   inkscape:export-filename="/home/undervoid/splash.png"
   inkscape:export-xdpi="96"
   inkscape:export-ydpi="96">
  <defs
     id="defs2">
    <clipPath
       id="clipPath16"
       clipPathUnits="userSpaceOnUse">
      <path
         inkscape:connector-curvature="0"
         id="path18"
         d="M 0,595.276 H 841.89 V 0 H 0 Z" />
    </clipPath>
  </defs>
  <sodipodi:namedview
     fit-margin-bottom="10"
     fit-margin-right="10"
     fit-margin-left="10"
     fit-margin-top="10"
     id="base"
     pagecolor="#ffffff"
     bordercolor="#666666"
     borderopacity="1.0"
     inkscape:pageopacity="0.0"
     inkscape:pageshadow="2"
     inkscape:zoom="1"
     inkscape:cx="95.690179"
     inkscape:cy="-122.88982"
     inkscape:document-units="px"
     inkscape:current-layer="layer1"
     showgrid="false"
     units="px"
     inkscape:snap-page="false"
     inkscape:snap-bbox="true"
     inkscape:bbox-paths="true"
     inkscape:bbox-nodes="true"
     inkscape:snap-bbox-edge-midpoints="true"
     inkscape:snap-bbox-midpoints="true"
     inkscape:window-width="1920"
     inkscape:window-height="1027"
     inkscape:window-x="-8"
     inkscape:window-y="-8"
     inkscape:window-maximized="1"
     inkscape:document-rotation="0" />
  <metadata
     id="metadata5">
    <rdf:RDF>
      <cc:Work
         rdf:about="">
        <dc:format>image/svg+xml</dc:format>
        <dc:type
           rdf:resource="http://purl.org/dc/dcmitype/StillImage" />
        <dc:title></dc:title>
      </cc:Work>
    </rdf:RDF>
  </metadata>
  <g
     inkscape:label="Layer 1"
     inkscape:groupmode="layer"
     id="layer1"
     transform="translate(-67.75381,-223.10191)">
    <path
       inkscape:connector-curvature="0"
       id="path22"
       d="m 91.922937,225.74774 c -2.156676,0 -3.917354,0.6935 -5.281302,2.07932 -1.363539,1.38763 -2.04523,3.42562 -2.04523,6.11707 0,2.68982 0.674085,4.73583 2.021629,6.13805 1.349368,1.401 3.09505,2.10161 5.235935,2.10161 2.141897,0 3.889625,-0.67376 5.246687,-2.02111 1.357062,-1.35017 2.035002,-3.40755 2.035002,-6.17371 0,-2.76414 -0.662597,-4.83083 -1.989896,-6.19417 -1.324864,-1.36597 -3.066549,-2.04706 -5.222825,-2.04706 z m 30.319433,0 c -2.15749,0 -3.91713,0.6935 -5.28209,2.07932 -1.36333,1.38763 -2.04496,3.42562 -2.04496,6.11707 0,2.68982 0.6743,4.73583 2.02346,6.13805 1.34815,1.401 3.09267,2.10161 5.23436,2.10161 2.14089,0 3.89023,-0.67376 5.24669,-2.02111 1.35686,-1.35017 2.035,-3.40755 2.035,-6.17371 0,-2.76414 -0.66256,-4.83083 -1.98885,-6.19417 -1.32648,-1.36597 -3.06693,-2.04706 -5.22361,-2.04706 z m -44.34495,2.6e-4 c -2.34762,0 -4.183253,0.73885 -5.508928,2.217 -1.326688,1.47875 -1.988849,3.39839 -1.988849,5.7612 0,2.77426 0.677725,4.87723 2.033168,6.30982 1.35787,1.43239 3.140661,2.14777 5.350796,2.14777 1.188593,0 2.24355,-0.10221 3.165267,-0.30814 0.922729,-0.20512 1.536061,-0.41558 1.841207,-0.62859 l 0.09152,-7.15398 c 0,-0.4157 -1.097216,-0.60439 -2.327928,-0.62545 -1.230707,-0.019 -2.639208,0.23759 -2.639208,0.23759 v 2.40215 h 1.416371 l -0.01573,1.07073 c 0,0.39667 -0.393241,0.59582 -1.17747,0.59582 -0.785241,0 -1.478784,-0.3326 -2.080369,-0.99574 -0.603003,-0.66395 -0.902899,-1.63435 -0.902899,-2.91325 0,-1.28154 0.293017,-2.22647 0.879824,-2.83615 0.585586,-0.60908 1.353312,-0.91444 2.297507,-0.91444 0.396667,0 0.807329,0.064 1.234373,0.19458 0.427246,0.12939 0.71247,0.25066 0.858058,0.36426 0.144371,0.11683 0.281665,0.17203 0.411459,0.17203 0.129187,0 0.338459,-0.15101 0.627807,-0.45657 0.289761,-0.30474 0.549324,-0.76652 0.778337,-1.38228 0.228,-0.619 0.342226,-1.09348 0.342226,-1.43001 0,-0.3339 -0.0075,-0.56427 -0.02229,-0.68576 -0.320132,-0.3503 -0.910978,-0.62792 -1.772761,-0.83446 C 79.928747,225.8502 78.96432,225.748 77.89742,225.748 Z m 24.28602,0.20428 c -0.30575,0 -0.55306,0.11152 -0.74319,0.33122 -0.19135,0.22313 -0.28611,0.52424 -0.28611,0.90552 v 13.71529 c 0,0.70161 0.38946,1.05133 1.16619,1.05133 h 3.9082 c 4.78576,0 7.17942,-2.80388 7.17942,-8.41275 0,-2.62178 -0.62918,-4.54119 -1.88763,-5.76015 -1.25622,-1.21938 -3.0964,-1.83046 -5.51915,-1.83046 z m 28.52203,0 c -0.25939,0 -0.44231,0.35243 -0.54862,1.05343 -0.0458,0.33512 -0.0676,0.67891 -0.0676,1.02799 0,0.35112 0.0219,0.69349 0.0676,1.02799 0.10631,0.70283 0.28923,1.05265 0.54862,1.05265 h 2.74279 v 11.47704 c 0,0.30292 0.75556,0.45657 2.26368,0.45657 1.50953,0 2.26315,-0.15365 2.26315,-0.45657 v -11.47704 h 2.67488 c 0.25898,0 0.44121,-0.34982 0.54913,-1.05265 0.0448,-0.3345 0.0679,-0.67687 0.0679,-1.02799 0,-0.34908 -0.0232,-0.69287 -0.0679,-1.02799 -0.10792,-0.701 -0.29015,-1.05343 -0.54913,-1.05343 z m -38.840223,4.18487 c 0.732187,0 1.345741,0.32766 1.840417,0.9821 0.495279,0.65524 0.743719,1.59332 0.743719,2.81229 0,1.21998 -0.240549,2.15712 -0.720644,2.81176 -0.480092,0.65707 -1.105323,0.98446 -1.87477,0.98446 -0.76985,0 -1.390308,-0.32328 -1.862709,-0.97266 -0.473209,-0.64734 -0.709366,-1.57623 -0.709366,-2.78973 0,-1.21087 0.248401,-2.15182 0.742671,-2.82225 0.496902,-0.66983 1.109504,-1.00597 1.840682,-1.00597 z m 30.319693,0 c 0.73219,0 1.34494,0.32766 1.84042,0.9821 0.49528,0.65524 0.7432,1.59332 0.7432,2.81229 0,1.21998 -0.24035,2.15712 -0.72065,2.81176 -0.47948,0.65707 -1.10512,0.98446 -1.87477,0.98446 -0.76985,0 -1.39092,-0.32328 -1.86271,-0.97266 -0.47179,-0.64734 -0.70858,-1.57623 -0.70858,-2.78973 0,-1.21087 0.2473,-2.15182 0.74136,-2.82225 0.4961,-0.66983 1.11035,-1.00597 1.84173,-1.00597 z m -16.64191,0.1584 h 0.22867 c 0.97538,0 1.68821,0.22328 2.13833,0.66531 0.4479,0.44081 0.67318,1.38957 0.67318,2.84585 0,1.45567 -0.21534,2.49511 -0.65089,3.11938 -0.43453,0.62487 -1.07002,0.9383 -1.90912,0.9383 -0.228,0 -0.36558,-0.0421 -0.41094,-0.12614 -0.0458,-0.0844 -0.0692,-0.28567 -0.0692,-0.60499 z"
       style="fill:#fefefe;fill-opacity:1;fill-rule:nonzero;stroke:none;stroke-width:0.179024" />
    <path
       inkscape:connector-curvature="0"
       id="path42"
       d="m 119.50181,245.88795 v 0.8064 h 0.573 v -0.8064 z m -34.912093,0.39258 c -0.664559,0 -1.196894,0.2167 -1.594171,0.64354 -0.398089,0.43029 -0.596339,1.04646 -0.596339,1.85012 v 2.04838 c 0,0.82149 0.210597,1.45112 0.630953,1.88789 0.421986,0.4402 0.977509,0.6577 1.668392,0.6577 0.523628,0 0.954797,-0.10741 1.294166,-0.32387 0.339767,-0.21504 0.571997,-0.45281 0.698348,-0.71199 v -2.45721 h -2.00248 v 0.49852 h 1.429745 v 1.79426 c -0.09173,0.20067 -0.254162,0.36973 -0.488033,0.50823 -0.233062,0.14053 -0.544392,0.20927 -0.931746,0.20927 -0.530518,0 -0.95087,-0.17487 -1.262701,-0.52396 -0.311827,-0.35172 -0.467843,-0.86246 -0.467843,-1.53228 v -2.06018 c 0,-0.64593 0.144198,-1.13752 0.433751,-1.47669 0.290364,-0.33997 0.687211,-0.50954 1.187958,-0.50954 0.494876,0 0.86972,0.12696 1.121614,0.37763 0.253309,0.25271 0.387964,0.61046 0.407,1.07415 h 0.530253 l 0.0089,-0.027 c -0.01619,-0.60503 -0.20295,-1.07878 -0.558314,-1.41795 -0.356372,-0.33795 -0.859892,-0.50901 -1.509469,-0.50901 z m 5.072034,1.77564 c -0.479079,0 -0.872536,0.15008 -1.179304,0.45159 -0.307982,0.30231 -0.453979,0.64336 -0.438993,1.0293 l 0.0092,0.0278 0.53104,0.005 c 0,-0.28449 0.09801,-0.5234 0.295024,-0.7188 0.197626,-0.19662 0.449386,-0.29345 0.754733,-0.29345 0.328228,0 0.582514,0.10274 0.767584,0.30604 0.181226,0.20593 0.27352,0.49091 0.27352,0.85255 v 0.62885 h -0.894246 c -0.570809,0 -1.024516,0.14106 -1.358417,0.42353 -0.334102,0.28246 -0.500881,0.66318 -0.500881,1.1376 0,0.44891 0.115895,0.80454 0.345109,1.06838 0.230632,0.26283 0.556401,0.39415 0.980002,0.39415 0.30292,0 0.57778,-0.0826 0.825013,-0.24887 0.247643,-0.16502 0.448116,-0.37546 0.60342,-0.62938 0,0.11602 0.0069,0.2303 0.02046,0.34511 0.01397,0.11279 0.03616,0.25664 0.06451,0.43401 h 0.591358 c -0.04151,-0.16502 -0.06804,-0.33048 -0.08445,-0.50219 -0.01602,-0.16948 -0.02466,-0.34715 -0.02466,-0.52999 v -2.50993 c 0,-0.53719 -0.145182,-0.95012 -0.434538,-1.23988 -0.290967,-0.28692 -0.672062,-0.43112 -1.145473,-0.43112 z m 4.741348,0 c -0.30292,0 -0.566773,0.0768 -0.790925,0.23052 -0.223343,0.15571 -0.403673,0.37472 -0.538123,0.65901 l -0.04851,-0.79433 h -0.501672 v 5.11793 h 0.568283 v -3.68478 c 0.07856,-0.31547 0.207977,-0.56392 0.390215,-0.74555 0.181024,-0.18062 0.422765,-0.27195 0.72143,-0.27195 0.312438,0 0.55566,0.13004 0.730607,0.39206 0.17576,0.26201 0.261718,0.7009 0.261718,1.31383 v 2.99639 h 0.568805 v -3.07978 -0.13244 c 0.04151,-0.42947 0.155579,-0.78519 0.340653,-1.06968 0.186083,-0.2845 0.445029,-0.42431 0.776499,-0.42431 0.315069,0 0.558624,0.12809 0.728511,0.38261 0.168871,0.25412 0.255686,0.69609 0.255686,1.3238 v 2.9998 h 0.571687 v -2.98983 c 0,-0.75507 -0.12349,-1.31382 -0.371334,-1.67809 -0.246831,-0.36346 -0.595076,-0.54521 -1.043989,-0.54521 -0.325801,0 -0.607067,0.0972 -0.838913,0.2924 -0.231845,0.19479 -0.410397,0.46399 -0.53655,0.80456 -0.09861,-0.36892 -0.253785,-0.64358 -0.464167,-0.82501 -0.210178,-0.18203 -0.470712,-0.27195 -0.779907,-0.27195 z m 6.874161,0 c -0.49589,0 -0.91897,0.21338 -1.27109,0.63962 -0.351311,0.42825 -0.526843,0.96685 -0.526843,1.61279 v 0.84966 c 0,0.64472 0.174992,1.1742 0.524483,1.58788 0.35051,0.41449 0.80192,0.62204 1.3537,0.62204 0.34362,0 0.63839,-0.0599 0.88218,-0.17675 0.2444,-0.11744 0.44447,-0.27577 0.59896,-0.47177 l -0.23261,-0.40255 c -0.14477,0.18285 -0.31877,0.32227 -0.52186,0.42169 -0.20309,0.0972 -0.44684,0.14659 -0.72667,0.14659 -0.40275,0 -0.72409,-0.16375 -0.9606,-0.4938 -0.2361,-0.32924 -0.35481,-0.74151 -0.35481,-1.237 v -0.42562 h 2.92873 v -0.56172 c 0,-0.64411 -0.14831,-1.15727 -0.44556,-1.53936 -0.29664,-0.38149 -0.71182,-0.5717 -1.24801,-0.5717 z m 6.31192,0 c -0.49589,0 -0.91901,0.21338 -1.27214,0.63962 -0.3505,0.42825 -0.52711,0.96685 -0.52711,1.61279 v 0.84966 c 0,0.64472 0.17568,1.1742 0.52658,1.58788 0.3499,0.41449 0.80041,0.62204 1.35239,0.62204 0.34382,0 0.63813,-0.0599 0.88192,-0.17675 0.24481,-0.11744 0.44453,-0.27577 0.59923,-0.47177 l -0.23104,-0.40255 c -0.1464,0.18285 -0.32032,0.32227 -0.52422,0.42169 -0.20249,0.0972 -0.44504,0.14659 -0.72589,0.14659 -0.40417,0 -0.72399,-0.16375 -0.95928,-0.4938 -0.23752,-0.32924 -0.35639,-0.74151 -0.35639,-1.237 v -0.42562 h 2.92898 v -0.56172 c 10e-6,-0.64411 -0.14878,-1.15727 -0.44502,-1.53936 -0.29583,-0.38149 -0.71284,-0.5717 -1.24801,-0.5717 z m 4.57534,0 c -0.30393,0 -0.56814,0.0827 -0.79249,0.24573 -0.22638,0.16219 -0.40663,0.39518 -0.54311,0.69546 l -0.0467,-0.84599 h -0.50691 v 5.11793 h 0.56775 v -3.65304 c 0.0974,-0.31932 0.24384,-0.57273 0.44005,-0.76287 0.19539,-0.19195 0.43899,-0.28637 0.72955,-0.28637 0.32398,0 0.57261,0.11817 0.74189,0.35508 0.17029,0.23691 0.25595,0.6454 0.25595,1.23018 v 3.11702 h 0.57221 v -3.12226 c 0,-0.71539 -0.12185,-1.24269 -0.36766,-1.58185 -0.24319,-0.33977 -0.59333,-0.50902 -1.05055,-0.50902 z m 4.16756,0 c -0.51755,0 -0.92377,0.21911 -1.21575,0.65587 -0.29442,0.43899 -0.44084,1.02176 -0.44084,1.74706 v 0.69914 c 0,0.66841 0.14643,1.2045 0.43821,1.60624 0.29118,0.40254 0.6943,0.60394 1.20842,0.60394 0.2772,0 0.52311,-0.0614 0.73349,-0.18409 0.21119,-0.1221 0.38926,-0.29904 0.53445,-0.52947 v 0.61915 c 0,0.50561 -0.0978,0.88747 -0.29345,1.15151 -0.19479,0.2606 -0.49637,0.39127 -0.90316,0.39127 -0.20229,0 -0.39713,-0.0271 -0.58585,-0.0831 -0.19034,-0.0543 -0.36241,-0.13141 -0.5161,-0.23104 l -0.15708,0.49879 c 0.18021,0.10104 0.38585,0.18148 0.61811,0.24283 0.23184,0.0614 0.44868,0.0931 0.65036,0.0931 0.56108,0 0.99555,-0.1815 1.30151,-0.53969 0.30555,-0.35962 0.45761,-0.86779 0.45761,-1.52364 v -5.12264 h -0.48226 l -0.0553,0.71199 c -0.14315,-0.25676 -0.32148,-0.45871 -0.53733,-0.59661 -0.21545,-0.14052 -0.46767,-0.21058 -0.755,-0.21058 z m 6.97382,0 c -0.30251,0 -0.56699,0.0827 -0.79276,0.24573 -0.22597,0.16219 -0.40544,0.39518 -0.54232,0.69546 l -0.0467,-0.84599 h -0.50665 v 5.11793 h 0.56854 v -3.65304 c 0.097,-0.31932 0.24398,-0.57273 0.43978,-0.76287 0.1952,-0.19195 0.43841,-0.28637 0.72877,-0.28637 0.32499,0 0.57198,0.11817 0.74267,0.35508 0.16989,0.23691 0.25543,0.6454 0.25543,1.23018 v 3.11702 h 0.57195 v -3.12226 c 0,-0.71539 -0.12062,-1.24269 -0.36583,-1.58185 -0.24379,-0.33977 -0.59569,-0.50902 -1.0529,-0.50902 z m 4.26747,0 c -0.49488,0 -0.91844,0.21338 -1.27056,0.63962 -0.35132,0.42825 -0.52659,0.96685 -0.52659,1.61279 v 0.84966 c 0,0.64472 0.17524,1.1742 0.52554,1.58788 0.34888,0.41449 0.79925,0.62204 1.35264,0.62204 0.34342,0 0.63807,-0.0599 0.88166,-0.17675 0.2444,-0.11744 0.44404,-0.27577 0.59975,-0.47177 l -0.23208,-0.40255 c -0.1462,0.18285 -0.31983,0.32227 -0.52475,0.42169 -0.20228,0.0972 -0.44474,0.14659 -0.72458,0.14659 -0.40456,0 -0.72475,-0.16375 -0.96085,-0.4938 -0.2363,-0.32924 -0.35586,-0.74151 -0.35586,-1.237 v -0.42562 h 2.92977 v -0.56172 c 0,-0.64411 -0.14847,-1.15727 -0.4445,-1.53936 -0.29685,-0.38149 -0.71381,-0.5717 -1.24959,-0.5717 z m -8.07156,0.0952 v 5.11793 h 0.573 v -5.11793 z m -18.22455,0.40569 c 0.35334,0 0.62877,0.13852 0.82842,0.41775 0.19844,0.27903 0.29739,0.63078 0.29739,1.05317 v 0.21923 h -2.36097 c 0.01,-0.47766 0.12802,-0.8785 0.35744,-1.20369 0.22921,-0.32398 0.52175,-0.48646 0.87772,-0.48646 z m 6.31192,0 c 0.35313,0 0.62847,0.13852 0.82711,0.41775 0.19965,0.27903 0.29843,0.63078 0.29843,1.05317 v 0.21923 h -2.36149 c 0.0103,-0.47766 0.12891,-0.8785 0.35691,-1.20369 0.22901,-0.32398 0.52205,-0.48646 0.87904,-0.48646 z m 19.98419,0 c 0.35374,0 0.62953,0.13852 0.82816,0.41775 0.19925,0.27903 0.29765,0.63078 0.29765,1.05317 v 0.21923 h -2.36149 c 0.0101,-0.47766 0.12935,-0.8785 0.35796,-1.20369 0.228,-0.32398 0.52074,-0.48646 0.87772,-0.48646 z m -11.11803,0.0102 c 0.28064,0 0.51382,0.0836 0.69809,0.25044 0.18446,0.16969 0.33032,0.39014 0.43663,0.66269 v 2.5351 c -0.11056,0.26465 -0.25984,0.47325 -0.44896,0.62309 -0.18973,0.14984 -0.4209,0.2229 -0.69547,0.2229 -0.40072,0 -0.70122,-0.15317 -0.89844,-0.46338 -0.19965,-0.30738 -0.29791,-0.7205 -0.29791,-1.23988 v -0.69914 c 0,-0.56089 0.10061,-1.01782 0.30289,-1.36812 0.20087,-0.34969 0.50325,-0.5237 0.90317,-0.5237 z m -26.690264,2.21831 h 0.909458 v 1.10719 c -0.101851,0.28044 -0.273445,0.51061 -0.518453,0.69284 -0.244606,0.18143 -0.524715,0.27064 -0.839177,0.27064 -0.261613,0 -0.464856,-0.085 -0.610239,-0.25857 -0.145588,-0.17293 -0.217399,-0.3974 -0.217399,-0.67056 0,-0.32337 0.115016,-0.59528 0.347472,-0.81295 0.231845,-0.21909 0.541588,-0.32859 0.928338,-0.32859 z"
       style="fill:#ababab;fill-opacity:1;fill-rule:nonzero;stroke:none;stroke-width:0.179024" />
  </g>
</svg>
