<?xml version="1.0" encoding="UTF-8" standalone="no"?>
<svg
   xmlns:dc="http://purl.org/dc/elements/1.1/"
   xmlns:cc="http://creativecommons.org/ns#"
   xmlns:rdf="http://www.w3.org/1999/02/22-rdf-syntax-ns#"
   xmlns:svg="http://www.w3.org/2000/svg"
   xmlns="http://www.w3.org/2000/svg"
   xmlns:sodipodi="http://sodipodi.sourceforge.net/DTD/sodipodi-0.dtd"
   xmlns:inkscape="http://www.inkscape.org/namespaces/inkscape"
   width="152.29164mm"
   height="82.962234mm"
   viewBox="0 0 152.29164 82.962234"
   version="1.1"
   id="svg8"
   inkscape:version="1.0 (4035a4fb49, 2020-05-01)"
   sodipodi:docname="your-studio.svg">
  <defs
     id="defs2" />
  <sodipodi:namedview
     id="base"
     pagecolor="#ffffff"
     bordercolor="#666666"
     borderopacity="1.0"
     inkscape:pageopacity="0.0"
     inkscape:pageshadow="2"
     inkscape:zoom="1"
     inkscape:cx="259.20114"
     inkscape:cy="162.99801"
     inkscape:document-units="mm"
     inkscape:current-layer="layer1"
     inkscape:document-rotation="0"
     showgrid="false"
     inkscape:window-width="1920"
     inkscape:window-height="1027"
     inkscape:window-x="-8"
     inkscape:window-y="-8"
     inkscape:window-maximized="1"
     fit-margin-top="10"
     fit-margin-left="10"
     fit-margin-right="10"
     fit-margin-bottom="10" />
  <metadata
     id="metadata5">
    <rdf:RDF>
      <cc:Work
         rdf:about="">
        <dc:format>image/svg+xml</dc:format>
        <dc:type
           rdf:resource="http://purl.org/dc/dcmitype/StillImage" />
        <dc:title />
      </cc:Work>
    </rdf:RDF>
  </metadata>
  <g
     inkscape:label="Layer 1"
     inkscape:groupmode="layer"
     id="layer1"
     transform="translate(-25.909718,-100.74896)">
    <path
       id="path920"
       d="m 59.674547,111.30701 1.786112,5.84673 c 1.035804,3.39445 2.148649,6.49379 3.353964,9.30448 l 0.0021,0.006 0.004,0.006 c 0.369626,0.85504 0.749458,1.53362 1.121326,2.34136 l -2.7072,-0.8954 -2.873397,12.51267 3.682353,1.47644 c 0.808104,0.32374 1.591446,0.52229 2.41886,0.68774 1.051462,0.22924 2.123033,0.3353 3.201785,0.3353 1.276654,0 2.540318,-0.14981 3.796488,-0.522 1.288093,-0.35549 2.526871,-0.96805 3.566215,-1.78888 0.987112,-0.7606 1.804394,-1.66102 2.482937,-2.64046 0.644351,-0.90942 1.212338,-1.89823 1.752071,-2.99862 l 0.002,-0.006 0.0021,-0.004 c 1.341076,-2.74984 2.577269,-5.58277 3.706381,-8.49862 1.12564,-2.90689 2.196619,-6.00294 3.219807,-9.29115 l 1.828161,-5.87149 h -6.435608 -8.530085 -0.316373 z"
       style="color:#000000;font-style:normal;font-variant:normal;font-weight:bold;font-stretch:normal;font-size:medium;line-height:0.85;font-family:Ubuntu;-inkscape-font-specification:'Ubuntu Bold';font-variant-ligatures:normal;font-variant-position:normal;font-variant-caps:normal;font-variant-numeric:normal;font-variant-alternates:normal;font-variant-east-asian:normal;font-feature-settings:normal;font-variation-settings:normal;text-indent:0;text-align:center;text-decoration:none;text-decoration-line:none;text-decoration-style:solid;text-decoration-color:#000000;letter-spacing:-0.0243051px;word-spacing:0px;text-transform:none;writing-mode:lr-tb;direction:ltr;text-orientation:mixed;dominant-baseline:auto;baseline-shift:baseline;text-anchor:middle;white-space:normal;shape-padding:0;shape-margin:0;inline-size:0;clip-rule:nonzero;display:inline;overflow:visible;visibility:visible;isolation:auto;mix-blend-mode:normal;color-interpolation:sRGB;color-interpolation-filters:linearRGB;solid-color:#000000;solid-opacity:1;vector-effect:none;fill:#7137c8;fill-opacity:1;fill-rule:nonzero;stroke:none;stroke-width:9.3764;stroke-linecap:butt;stroke-linejoin:miter;stroke-miterlimit:4;stroke-dasharray:none;stroke-dashoffset:0;stroke-opacity:1;paint-order:stroke markers fill;color-rendering:auto;image-rendering:auto;shape-rendering:auto;text-rendering:auto;enable-background:accumulate;stop-color:#000000" />
    <path
       id="path922"
       d="m 83.584554,115.87969 c -0.996709,3.20311 -2.037716,6.20602 -3.123022,9.00875 -1.085305,2.80273 -2.270282,5.52115 -3.554929,8.15529 -0.465131,0.94829 -0.930262,1.74907 -1.395392,2.40234 -0.465132,0.67434 -0.974561,1.22224 -1.528288,1.6437 -0.553727,0.44254 -1.184976,0.75864 -1.893747,0.94829 -0.686622,0.21073 -1.495064,0.31609 -2.425326,0.31609 -0.775218,0 -1.495063,-0.0737 -2.159536,-0.22126 -0.642324,-0.12644 -1.173902,-0.27395 -1.594734,-0.44254 l 0.863814,-3.76154 c 0.509429,0.16858 0.963485,0.28448 1.362169,0.3477 0.398683,0.0632 0.819516,0.0948 1.262498,0.0948 0.885964,0 1.561511,-0.23181 2.026642,-0.69541 0.487281,-0.44253 0.897038,-1.06419 1.229275,-1.86497 -1.129605,-2.10731 -2.259208,-4.46749 -3.388811,-7.08056 -1.129604,-2.63414 -2.19276,-5.58438 -3.189469,-8.85071 h 5.249334 c 0.221491,0.82185 0.476206,1.71746 0.764144,2.68682 0.310087,0.94829 0.631249,1.91765 0.963485,2.90809 0.332236,0.96936 0.664473,1.91765 0.996709,2.84487 0.354386,0.92721 0.686623,1.77014 0.996709,2.52877 0.287938,-0.75863 0.586951,-1.60156 0.897038,-2.52877 0.310088,-0.92722 0.609101,-1.87551 0.897039,-2.84487 0.310087,-0.99044 0.598025,-1.9598 0.863814,-2.90809 0.287938,-0.96936 0.542653,-1.86497 0.764144,-2.68682 z"
       style="color:#000000;font-style:normal;font-variant:normal;font-weight:bold;font-stretch:normal;font-size:medium;line-height:0.85;font-family:Ubuntu;-inkscape-font-specification:'Ubuntu Bold';font-variant-ligatures:normal;font-variant-position:normal;font-variant-caps:normal;font-variant-numeric:normal;font-variant-alternates:normal;font-variant-east-asian:normal;font-feature-settings:normal;font-variation-settings:normal;text-indent:0;text-align:center;text-decoration:none;text-decoration-line:none;text-decoration-style:solid;text-decoration-color:#000000;letter-spacing:-0.0243051px;word-spacing:0px;text-transform:none;writing-mode:lr-tb;direction:ltr;text-orientation:mixed;dominant-baseline:auto;baseline-shift:baseline;text-anchor:middle;white-space:normal;shape-padding:0;shape-margin:0;inline-size:0;clip-rule:nonzero;display:inline;overflow:visible;visibility:visible;isolation:auto;mix-blend-mode:normal;color-interpolation:sRGB;color-interpolation-filters:linearRGB;solid-color:#000000;solid-opacity:1;vector-effect:none;fill:#c6afe9;fill-opacity:1;fill-rule:nonzero;stroke:none;stroke-width:9.3764;stroke-linecap:butt;stroke-linejoin:miter;stroke-miterlimit:4;stroke-dasharray:none;stroke-dashoffset:0;stroke-opacity:1;paint-order:stroke markers fill;color-rendering:auto;image-rendering:auto;shape-rendering:auto;text-rendering:auto;enable-background:accumulate;stop-color:#000000" />
    <path
       id="path928"
       d="m 93.532574,110.86503 c -1.812538,0 -3.626554,0.31873 -5.302268,0.98303 l -0.01802,0.008 -0.01602,0.006 c -1.60154,0.64839 -3.074391,1.60228 -4.289071,2.79097 l -0.02403,0.0228 -0.02403,0.0248 c -1.207983,1.21691 -2.13266,2.66556 -2.773279,4.21978 l -0.01602,0.0362 -0.01402,0.0362 c -0.643274,1.6428 -0.933102,3.39486 -0.933102,5.16852 0,1.77366 0.290932,3.52816 0.92309,5.17423 l 0.004,0.0134 0.006,0.0134 c 0.615518,1.57192 1.529514,3.04084 2.725222,4.27884 l 0.02202,0.0228 0.02403,0.0228 c 1.207093,1.21601 2.690247,2.18561 4.303088,2.83859 l 0.01602,0.006 0.01602,0.008 c 1.697591,0.67296 3.533243,0.98302 5.370349,0.98302 1.843542,0 3.683521,-0.30425 5.386367,-0.99064 1.629991,-0.64867 3.136021,-1.61616 4.355161,-2.84431 l 0.022,-0.0228 0.022,-0.0228 c 1.2116,-1.25444 2.12785,-2.75358 2.72122,-4.35314 l 0.006,-0.0134 0.004,-0.0134 c 0.59184,-1.62669 0.86302,-3.35086 0.86302,-5.09993 0,-1.77367 -0.29183,-3.52572 -0.93511,-5.16853 -0.61911,-1.58107 -1.54514,-3.05899 -2.76927,-4.29217 -1.21914,-1.22815 -2.72516,-2.19565 -4.355152,-2.84431 -1.680293,-0.67734 -3.501977,-0.99064 -5.32029,-0.99064 z m -6.527718,7.21649 c -0.0064,0.009 -0.0077,0.0181 -0.01401,0.0266 -0.005,0.007 -0.01504,0.0103 -0.02002,0.0172 z m 13.025394,0 0.0781,0.10859 c -0.01,-0.014 -0.0319,-0.0203 -0.0421,-0.0343 -0.0173,-0.0234 -0.0184,-0.051 -0.036,-0.0743 z m 0.0781,12.1145 -0.014,0.021 c 0.003,-0.005 0.005,-0.0103 0.008,-0.0152 0.002,-0.002 0.005,-0.004 0.006,-0.006 z"
       style="color:#000000;font-style:normal;font-variant:normal;font-weight:bold;font-stretch:normal;font-size:medium;line-height:0.85;font-family:Ubuntu;-inkscape-font-specification:'Ubuntu Bold';font-variant-ligatures:normal;font-variant-position:normal;font-variant-caps:normal;font-variant-numeric:normal;font-variant-alternates:normal;font-variant-east-asian:normal;font-feature-settings:normal;font-variation-settings:normal;text-indent:0;text-align:center;text-decoration:none;text-decoration-line:none;text-decoration-style:solid;text-decoration-color:#000000;letter-spacing:-0.0243051px;word-spacing:0px;text-transform:none;writing-mode:lr-tb;direction:ltr;text-orientation:mixed;dominant-baseline:auto;baseline-shift:baseline;text-anchor:middle;white-space:normal;shape-padding:0;shape-margin:0;inline-size:0;clip-rule:nonzero;display:inline;overflow:visible;visibility:visible;isolation:auto;mix-blend-mode:normal;color-interpolation:sRGB;color-interpolation-filters:linearRGB;solid-color:#000000;solid-opacity:1;vector-effect:none;fill:#7137c8;fill-opacity:1;fill-rule:nonzero;stroke:none;stroke-width:9.3764;stroke-linecap:butt;stroke-linejoin:miter;stroke-miterlimit:4;stroke-dasharray:none;stroke-dashoffset:0;stroke-opacity:1;paint-order:stroke markers fill;color-rendering:auto;image-rendering:auto;shape-rendering:auto;text-rendering:auto;enable-background:accumulate;stop-color:#000000" />
    <path
       id="path930"
       d="m 102.10517,124.16142 c 0,1.30653 -0.19934,2.5077 -0.59802,3.6035 -0.39869,1.07473 -0.97456,2.00195 -1.727631,2.78165 -0.753069,0.75863 -1.661182,1.34868 -2.724338,1.77014 -1.041008,0.42146 -2.214909,0.63219 -3.521706,0.63219 -1.284647,0 -2.458549,-0.21073 -3.521705,-0.63219 -1.041007,-0.42146 -1.938046,-1.01151 -2.691115,-1.77014 -0.753069,-0.7797 -1.34002,-1.70692 -1.760852,-2.78165 -0.420833,-1.0958 -0.631249,-2.29697 -0.631249,-3.6035 0,-1.30653 0.210416,-2.49716 0.631249,-3.57189 0.442981,-1.07473 1.041007,-1.99141 1.794075,-2.75004 0.775219,-0.75863 1.683332,-1.34868 2.724339,-1.77014 1.063156,-0.42146 2.214909,-0.63219 3.455258,-0.63219 1.262498,0 2.414251,0.21073 3.455259,0.63219 1.063156,0.42146 1.971269,1.01151 2.724338,1.77014 0.753068,0.75863 1.340018,1.67531 1.760848,2.75004 0.42084,1.07473 0.63125,2.26536 0.63125,3.57189 z m -5.049989,0 c 0,-1.45405 -0.310088,-2.59199 -0.930262,-3.41384 -0.598026,-0.84293 -1.46184,-1.26439 -2.591444,-1.26439 -1.129603,0 -2.004492,0.42146 -2.624667,1.26439 -0.620174,0.82185 -0.930262,1.95979 -0.930262,3.41384 0,1.45405 0.310088,2.61307 0.930262,3.47707 0.620175,0.84292 1.495064,1.26438 2.624667,1.26438 1.129604,0 1.993418,-0.42146 2.591444,-1.26438 0.620174,-0.864 0.930262,-2.02302 0.930262,-3.47707 z"
       style="color:#000000;font-style:normal;font-variant:normal;font-weight:bold;font-stretch:normal;font-size:medium;line-height:0.85;font-family:Ubuntu;-inkscape-font-specification:'Ubuntu Bold';font-variant-ligatures:normal;font-variant-position:normal;font-variant-caps:normal;font-variant-numeric:normal;font-variant-alternates:normal;font-variant-east-asian:normal;font-feature-settings:normal;font-variation-settings:normal;text-indent:0;text-align:center;text-decoration:none;text-decoration-line:none;text-decoration-style:solid;text-decoration-color:#000000;letter-spacing:-0.0243051px;word-spacing:0px;text-transform:none;writing-mode:lr-tb;direction:ltr;text-orientation:mixed;dominant-baseline:auto;baseline-shift:baseline;text-anchor:middle;white-space:normal;shape-padding:0;shape-margin:0;inline-size:0;clip-rule:nonzero;display:inline;overflow:visible;visibility:visible;isolation:auto;mix-blend-mode:normal;color-interpolation:sRGB;color-interpolation-filters:linearRGB;solid-color:#000000;solid-opacity:1;vector-effect:none;fill:#c6afe9;fill-opacity:1;fill-rule:nonzero;stroke:none;stroke-width:9.3764;stroke-linecap:butt;stroke-linejoin:miter;stroke-miterlimit:4;stroke-dasharray:none;stroke-dashoffset:0;stroke-opacity:1;paint-order:stroke markers fill;color-rendering:auto;image-rendering:auto;shape-rendering:auto;text-rendering:auto;enable-background:accumulate;stop-color:#000000" />
    <path
       style="color:#000000;font-style:normal;font-variant:normal;font-weight:bold;font-stretch:normal;font-size:32.4066px;line-height:0.85;font-family:Ubuntu;-inkscape-font-specification:'Ubuntu Bold';font-variant-ligatures:normal;font-variant-position:normal;font-variant-caps:normal;font-variant-numeric:normal;font-variant-alternates:normal;font-variant-east-asian:normal;font-feature-settings:normal;font-variation-settings:normal;text-indent:0;text-align:center;text-decoration:none;text-decoration-line:none;text-decoration-style:solid;text-decoration-color:#000000;letter-spacing:-0.0243051px;word-spacing:0px;text-transform:none;writing-mode:lr-tb;direction:ltr;text-orientation:mixed;dominant-baseline:auto;baseline-shift:baseline;text-anchor:middle;white-space:normal;shape-padding:0;shape-margin:0;inline-size:0;clip-rule:nonzero;display:inline;overflow:visible;visibility:visible;isolation:auto;mix-blend-mode:normal;color-interpolation:sRGB;color-interpolation-filters:linearRGB;solid-color:#000000;solid-opacity:1;vector-effect:none;fill:#7137c8;fill-opacity:1;fill-rule:nonzero;stroke:none;stroke-width:9.3764;stroke-linecap:butt;stroke-linejoin:miter;stroke-miterlimit:4;stroke-dasharray:none;stroke-dashoffset:0;stroke-opacity:1;paint-order:stroke markers fill;color-rendering:auto;image-rendering:auto;shape-rendering:auto;text-rendering:auto;enable-background:accumulate;stop-color:#000000"
       d="m 101.06055,111.19141 v 13.94921 c 0,1.47254 0.15756,2.91083 0.51367,4.29688 0.39644,1.54302 1.1218,3.03754 2.1582,4.28906 l 0.0234,0.0273 0.0234,0.0273 c 1.1421,1.33737 2.63065,2.29759 4.18945,2.9043 l 0.0156,0.006 0.0176,0.008 c 1.7196,0.65444 3.50524,0.875 5.38867,0.875 1.67975,0 3.3134,-0.12291 4.89844,-0.37305 1.43169,-0.20576 2.66895,-0.43564 3.78906,-0.74414 l 3.44336,-0.94726 v -3.57227 -20.74609 h -10.13476 -4.19336 z"
       id="path950" />
    <path
       style="color:#000000;font-style:normal;font-variant:normal;font-weight:bold;font-stretch:normal;font-size:32.4066px;line-height:0.85;font-family:Ubuntu;-inkscape-font-specification:'Ubuntu Bold';font-variant-ligatures:normal;font-variant-position:normal;font-variant-caps:normal;font-variant-numeric:normal;font-variant-alternates:normal;font-variant-east-asian:normal;font-feature-settings:normal;font-variation-settings:normal;text-indent:0;text-align:center;text-decoration:none;text-decoration-line:none;text-decoration-style:solid;text-decoration-color:#000000;letter-spacing:-0.0243051px;word-spacing:0px;text-transform:none;writing-mode:lr-tb;direction:ltr;text-orientation:mixed;dominant-baseline:auto;baseline-shift:baseline;text-anchor:middle;white-space:normal;shape-padding:0;shape-margin:0;inline-size:0;clip-rule:nonzero;display:inline;overflow:visible;visibility:visible;isolation:auto;mix-blend-mode:normal;color-interpolation:sRGB;color-interpolation-filters:linearRGB;solid-color:#000000;solid-opacity:1;vector-effect:none;fill:#c6afe9;fill-opacity:1;fill-rule:nonzero;stroke:none;stroke-width:9.3764;stroke-linecap:butt;stroke-linejoin:miter;stroke-miterlimit:4;stroke-dasharray:none;stroke-dashoffset:0;stroke-opacity:1;paint-order:stroke markers fill;color-rendering:auto;image-rendering:auto;shape-rendering:auto;text-rendering:auto;enable-background:accumulate;stop-color:#000000"
       d="m 120.83241,131.93739 c -0.84167,0.23181 -1.92698,0.44255 -3.25592,0.6322 -1.32895,0.21073 -2.72434,0.3161 -4.18618,0.3161 -1.48399,0 -2.72434,-0.18966 -3.72104,-0.56898 -0.97456,-0.37931 -1.74978,-0.90614 -2.32566,-1.58048 -0.57588,-0.69541 -0.98564,-1.51726 -1.22928,-2.46555 -0.24364,-0.94829 -0.36546,-1.99141 -0.36546,-3.12936 v -9.26163 h 4.95032 v 8.69266 c 0,1.51726 0.21042,2.61306 0.63126,3.2874 0.42083,0.67434 1.20712,1.01151 2.35888,1.01151 0.35438,0 0.73091,-0.0105 1.1296,-0.0316 0.39868,-0.0421 0.75306,-0.0843 1.06315,-0.12644 V 115.8797 h 4.95033 z"
       id="path952" />
    <path
       style="color:#000000;font-style:normal;font-variant:normal;font-weight:bold;font-stretch:normal;font-size:32.4066px;line-height:0.85;font-family:Ubuntu;-inkscape-font-specification:'Ubuntu Bold';font-variant-ligatures:normal;font-variant-position:normal;font-variant-caps:normal;font-variant-numeric:normal;font-variant-alternates:normal;font-variant-east-asian:normal;font-feature-settings:normal;font-variation-settings:normal;text-indent:0;text-align:center;text-decoration:none;text-decoration-line:none;text-decoration-style:solid;text-decoration-color:#000000;letter-spacing:-0.0243051px;word-spacing:0px;text-transform:none;writing-mode:lr-tb;direction:ltr;text-orientation:mixed;dominant-baseline:auto;baseline-shift:baseline;text-anchor:middle;white-space:normal;shape-padding:0;shape-margin:0;inline-size:0;clip-rule:nonzero;display:inline;overflow:visible;visibility:visible;isolation:auto;mix-blend-mode:normal;color-interpolation:sRGB;color-interpolation-filters:linearRGB;solid-color:#000000;solid-opacity:1;vector-effect:none;fill:#7137c8;fill-opacity:1;fill-rule:nonzero;stroke:none;stroke-width:9.3764;stroke-linecap:butt;stroke-linejoin:miter;stroke-miterlimit:4;stroke-dasharray:none;stroke-dashoffset:0;stroke-opacity:1;paint-order:stroke markers fill;color-rendering:auto;image-rendering:auto;shape-rendering:auto;text-rendering:auto;enable-background:accumulate;stop-color:#000000"
       d="m 132.66406,110.84375 c -1.76835,0 -3.45794,0.16186 -5.07031,0.52344 -1.30759,0.27792 -2.49707,0.58597 -3.58789,0.94922 l -3.20703,1.06836 v 23.81054 H 135.125 V 124.6582 l 4.47656,1.06446 1.00196,-4.69141 1.6582,-7.76367 -3.6836,-1.46094 c -0.64771,-0.25682 -1.24947,-0.39679 -1.8457,-0.5 -0.44283,-0.0937 -0.88898,-0.17076 -1.33789,-0.22461 -0.46294,-0.0734 -0.92902,-0.12661 -1.39648,-0.15625 -0.44347,-0.0464 -0.87251,-0.082 -1.33399,-0.082 z m -1.73047,4.13281 c -0.0262,0.003 -0.0561,0.011 -0.082,0.0137 -0.0374,0.005 -0.0757,0.004 -0.11328,0.01 z m 4.33789,0.14258 0.15625,0.0293 c -0.008,-0.002 -0.0157,-3.4e-4 -0.0234,-0.002 -0.0477,-0.009 -0.0845,-0.0188 -0.13282,-0.0273 z"
       id="path942" />
    <path
       style="color:#000000;font-style:normal;font-variant:normal;font-weight:bold;font-stretch:normal;font-size:32.4066px;line-height:0.85;font-family:Ubuntu;-inkscape-font-specification:'Ubuntu Bold';font-variant-ligatures:normal;font-variant-position:normal;font-variant-caps:normal;font-variant-numeric:normal;font-variant-alternates:normal;font-variant-east-asian:normal;font-feature-settings:normal;font-variation-settings:normal;text-indent:0;text-align:center;text-decoration:none;text-decoration-line:none;text-decoration-style:solid;text-decoration-color:#000000;letter-spacing:-0.0243051px;word-spacing:0px;text-transform:none;writing-mode:lr-tb;direction:ltr;text-orientation:mixed;dominant-baseline:auto;baseline-shift:baseline;text-anchor:middle;white-space:normal;shape-padding:0;shape-margin:0;inline-size:0;clip-rule:nonzero;display:inline;overflow:visible;visibility:visible;isolation:auto;mix-blend-mode:normal;color-interpolation:sRGB;color-interpolation-filters:linearRGB;solid-color:#000000;solid-opacity:1;vector-effect:none;fill:#c6afe9;fill-opacity:1;fill-rule:nonzero;stroke:none;stroke-width:9.3764;stroke-linecap:butt;stroke-linejoin:miter;stroke-miterlimit:4;stroke-dasharray:none;stroke-dashoffset:0;stroke-opacity:1;paint-order:stroke markers fill;color-rendering:auto;image-rendering:auto;shape-rendering:auto;text-rendering:auto;enable-background:accumulate;stop-color:#000000"
       d="m 136.01872,120.05216 c -0.44298,-0.10536 -0.96348,-0.21072 -1.56151,-0.31609 -0.59803,-0.12643 -1.24035,-0.18965 -1.92697,-0.18965 -0.31009,0 -0.68662,0.0316 -1.12961,0.0948 -0.42083,0.0421 -0.74199,0.0948 -0.96348,0.15804 v 12.70708 h -4.95032 v -15.74161 c 0.88596,-0.29503 1.92697,-0.56898 3.12302,-0.82185 1.2182,-0.27395 2.56929,-0.41092 4.05328,-0.41092 0.26579,0 0.58695,0.0211 0.96349,0.0632 0.37653,0.0211 0.75307,0.0632 1.1296,0.12645 0.37653,0.0421 0.75307,0.10535 1.1296,0.18965 0.37654,0.0632 0.69771,0.14749 0.9635,0.25288 z"
       id="path944" />
    <path
       style="color:#000000;font-style:normal;font-variant:normal;font-weight:bold;font-stretch:normal;font-size:41.9591px;line-height:0.85;font-family:Ubuntu;-inkscape-font-specification:'Ubuntu Bold';font-variant-ligatures:normal;font-variant-position:normal;font-variant-caps:normal;font-variant-numeric:normal;font-variant-alternates:normal;font-variant-east-asian:normal;font-feature-settings:normal;font-variation-settings:normal;text-indent:0;text-align:center;text-decoration:none;text-decoration-line:none;text-decoration-style:solid;text-decoration-color:#000000;letter-spacing:-0.0314694px;word-spacing:0px;text-transform:none;writing-mode:lr-tb;direction:ltr;text-orientation:mixed;dominant-baseline:auto;baseline-shift:baseline;text-anchor:middle;white-space:normal;shape-padding:0;shape-margin:0;inline-size:0;clip-rule:nonzero;display:inline;overflow:visible;visibility:visible;isolation:auto;mix-blend-mode:normal;color-interpolation:sRGB;color-interpolation-filters:linearRGB;solid-color:#000000;solid-opacity:1;vector-effect:none;fill:#7137c8;fill-opacity:1;fill-rule:nonzero;stroke:none;stroke-width:9.3764;stroke-linecap:butt;stroke-linejoin:miter;stroke-miterlimit:4;stroke-dasharray:none;stroke-dashoffset:0;stroke-opacity:1;paint-order:stroke markers fill;color-rendering:auto;image-rendering:auto;shape-rendering:auto;text-rendering:auto;enable-background:accumulate;stop-color:#000000"
       d="m 49.828125,141.08984 c -3.385356,0 -6.641457,0.78081 -9.222656,2.79883 -2.566549,2.00658 -4.107422,5.37009 -4.107422,8.60156 0,1.51534 0.208991,3.02913 0.806641,4.4961 0.124021,0.30441 0.392458,0.53064 0.544921,0.82422 l -2.607421,12.61914 3.451171,1.53515 c 1.062939,0.47242 2.017806,0.7296 3.40625,1.0918 l 0.01172,0.002 0.01172,0.004 c 1.855261,0.47368 3.844323,0.64844 6.070312,0.64844 3.571835,0 6.841201,-0.62479 9.570313,-2.50196 2.810345,-1.9163 4.515625,-5.4602 4.515625,-8.8164 0,-1.27697 -0.159865,-2.54106 -0.548828,-3.78711 -0.397466,-1.35842 -1.136609,-2.61675 -2.06836,-3.63281 -0.0092,-0.0105 -0.02205,-0.0149 -0.03125,-0.0254 l 0.002,-0.0137 c -0.02561,-0.0276 -0.04247,-0.0645 -0.06836,-0.0918 l 0.07227,0.0801 2.449219,-10.9336 -3.777344,-1.45312 c -1.145315,-0.44051 -2.341439,-0.72332 -3.722656,-0.97657 -1.545599,-0.31305 -3.13674,-0.46875 -4.757813,-0.46875 z m 4.347656,5.44336 0.0332,0.008 c -0.0025,-5.9e-4 -0.0053,5.8e-4 -0.0078,0 -0.0089,-0.002 -0.01643,-0.006 -0.02539,-0.008 z m 2.089844,5.80469 0.09961,0.0527 c -0.02191,-0.0123 -0.05222,-0.0209 -0.07422,-0.0332 -0.0094,-0.005 -0.01603,-0.0145 -0.02539,-0.0195 z m -3.421875,4.63477 0.130859,0.0801 c -0.02848,-0.0181 -0.06522,-0.0271 -0.09375,-0.0449 -0.01228,-0.007 -0.02488,-0.0279 -0.03711,-0.0352 z"
       id="path964" />
    <path
       style="color:#000000;font-style:normal;font-variant:normal;font-weight:bold;font-stretch:normal;font-size:41.9591px;line-height:0.85;font-family:Ubuntu;-inkscape-font-specification:'Ubuntu Bold';font-variant-ligatures:normal;font-variant-position:normal;font-variant-caps:normal;font-variant-numeric:normal;font-variant-alternates:normal;font-variant-east-asian:normal;font-feature-settings:normal;font-variation-settings:normal;text-indent:0;text-align:center;text-decoration:none;text-decoration-line:none;text-decoration-style:solid;text-decoration-color:#000000;letter-spacing:-0.0314694px;word-spacing:0px;text-transform:none;writing-mode:lr-tb;direction:ltr;text-orientation:mixed;dominant-baseline:auto;baseline-shift:baseline;text-anchor:middle;white-space:normal;shape-padding:0;shape-margin:0;inline-size:0;clip-rule:nonzero;display:inline;overflow:visible;visibility:visible;isolation:auto;mix-blend-mode:normal;color-interpolation:sRGB;color-interpolation-filters:linearRGB;solid-color:#000000;solid-opacity:1;vector-effect:none;fill:#c6afe9;fill-opacity:1;fill-rule:nonzero;stroke:none;stroke-width:9.3764;stroke-linecap:butt;stroke-linejoin:miter;stroke-miterlimit:4;stroke-dasharray:none;stroke-dashoffset:0;stroke-opacity:1;paint-order:stroke markers fill;color-rendering:auto;image-rendering:auto;shape-rendering:auto;text-rendering:auto;enable-background:accumulate;stop-color:#000000"
       d="m 48.234474,163.94594 c 1.146882,0 1.958091,-0.11189 2.433628,-0.33567 0.475537,-0.22379 0.713305,-0.65737 0.713305,-1.30074 0,-0.50351 -0.3077,-0.93708 -0.9231,-1.30073 -0.6154,-0.39162 -1.552487,-0.8252 -2.81126,-1.30073 -0.979045,-0.36365 -1.874173,-0.74128 -2.685382,-1.1329 -0.783237,-0.39161 -1.454582,-0.85316 -2.014037,-1.38465 -0.559455,-0.55945 -0.993032,-1.21681 -1.300732,-1.97207 -0.3077,-0.75527 -0.46155,-1.66438 -0.46155,-2.72735 0,-2.06998 0.76925,-3.70638 2.30775,-4.90921 1.538501,-1.20283 3.650442,-1.80424 6.335824,-1.80424 1.342691,0 2.629437,0.12588 3.860237,0.37763 1.230801,0.22378 2.209846,0.47553 2.937137,0.75526 l -1.090936,4.86726 c -0.727291,-0.25175 -1.524514,-0.47554 -2.391669,-0.67135 -0.839182,-0.19581 -1.790255,-0.29371 -2.853219,-0.29371 -1.958091,0 -2.937137,0.54547 -2.937137,1.63641 0,0.25175 0.04196,0.47553 0.125878,0.67134 0.08392,0.19581 0.251754,0.39162 0.503509,0.58743 0.251755,0.16783 0.587427,0.36364 1.007018,0.58743 0.447564,0.19581 1.007019,0.41959 1.678364,0.67134 1.370664,0.50351 2.50356,1.00702 3.398687,1.51053 0.895127,0.47553 1.594446,1.00701 2.097955,1.59444 0.531482,0.55946 0.895128,1.18885 1.090937,1.88816 0.223781,0.69932 0.335672,1.51053 0.335672,2.43363 0,2.18187 -0.825195,3.83227 -2.475586,4.95118 -1.622419,1.11891 -3.930169,1.67836 -6.923252,1.67836 -1.958091,0 -3.594496,-0.16784 -4.909214,-0.50351 -1.286746,-0.33567 -2.181874,-0.6154 -2.685383,-0.83918 l 1.048978,-5.07705 c 1.062964,0.41959 2.153901,0.75526 3.27281,1.00702 1.118909,0.22378 2.223832,0.33567 3.314768,0.33567 z"
       id="path966" />
    <path
       style="color:#000000;font-style:normal;font-variant:normal;font-weight:bold;font-stretch:normal;font-size:41.9591px;line-height:0.85;font-family:Ubuntu;-inkscape-font-specification:'Ubuntu Bold';font-variant-ligatures:normal;font-variant-position:normal;font-variant-caps:normal;font-variant-numeric:normal;font-variant-alternates:normal;font-variant-east-asian:normal;font-feature-settings:normal;font-variation-settings:normal;text-indent:0;text-align:center;text-decoration:none;text-decoration-line:none;text-decoration-style:solid;text-decoration-color:#000000;letter-spacing:-0.0314694px;word-spacing:0px;text-transform:none;writing-mode:lr-tb;direction:ltr;text-orientation:mixed;dominant-baseline:auto;baseline-shift:baseline;text-anchor:middle;white-space:normal;shape-padding:0;shape-margin:0;inline-size:0;clip-rule:nonzero;display:inline;overflow:visible;visibility:visible;isolation:auto;mix-blend-mode:normal;color-interpolation:sRGB;color-interpolation-filters:linearRGB;solid-color:#000000;solid-opacity:1;vector-effect:none;fill:#7137c8;fill-opacity:1;fill-rule:nonzero;stroke:none;stroke-width:9.3764;stroke-linecap:butt;stroke-linejoin:miter;stroke-miterlimit:4;stroke-dasharray:none;stroke-dashoffset:0;stroke-opacity:1;paint-order:stroke markers fill;color-rendering:auto;image-rendering:auto;shape-rendering:auto;text-rendering:auto;enable-background:accumulate;stop-color:#000000"
       d="M 72.921875,134.35742 57.292969,136.875 v 3.99414 18.54492 c 0,1.70239 0.149207,3.32977 0.482422,4.88477 l 0.0098,0.0527 0.01367,0.0508 c 0.41721,1.75228 1.18656,3.43876 2.326172,4.86328 l 0.02344,0.0313 0.02539,0.0293 c 1.200105,1.45012 2.771437,2.53699 4.462891,3.25586 l 0.04687,0.0195 0.04687,0.0195 c 1.881911,0.75276 3.862285,1.00586 5.978515,1.00586 1.603145,0 3.075002,-0.1204 4.503907,-0.46679 1.116732,-0.27072 2.176087,-0.60205 3.18164,-1.01172 l 3.521485,-1.43555 -2.564454,-14.16601 -5.277343,2.01171 c -0.27241,0.10378 -0.656828,0.20988 -1.117188,0.30274 -0.01246,0.002 -0.02275,0.002 -0.03516,0.004 v -2.60937 h 7.509766 v -14.57813 h -7.509766 z"
       id="path970" />
    <path
       style="color:#000000;font-style:normal;font-variant:normal;font-weight:bold;font-stretch:normal;font-size:41.9591px;line-height:0.85;font-family:Ubuntu;-inkscape-font-specification:'Ubuntu Bold';font-variant-ligatures:normal;font-variant-position:normal;font-variant-caps:normal;font-variant-numeric:normal;font-variant-alternates:normal;font-variant-east-asian:normal;font-feature-settings:normal;font-variation-settings:normal;text-indent:0;text-align:center;text-decoration:none;text-decoration-line:none;text-decoration-style:solid;text-decoration-color:#000000;letter-spacing:-0.0314694px;word-spacing:0px;text-transform:none;writing-mode:lr-tb;direction:ltr;text-orientation:mixed;dominant-baseline:auto;baseline-shift:baseline;text-anchor:middle;white-space:normal;shape-padding:0;shape-margin:0;inline-size:0;clip-rule:nonzero;display:inline;overflow:visible;visibility:visible;isolation:auto;mix-blend-mode:normal;color-interpolation:sRGB;color-interpolation-filters:linearRGB;solid-color:#000000;solid-opacity:1;vector-effect:none;fill:#c6afe9;fill-opacity:1;fill-rule:nonzero;stroke:none;stroke-width:9.3764;stroke-linecap:butt;stroke-linejoin:miter;stroke-miterlimit:4;stroke-dasharray:none;stroke-dashoffset:0;stroke-opacity:1;paint-order:stroke markers fill;color-rendering:auto;image-rendering:auto;shape-rendering:auto;text-rendering:auto;enable-background:accumulate;stop-color:#000000"
       d="m 61.981324,140.86843 6.251906,-1.00701 v 6.50366 h 7.510678 V 151.568 H 68.23323 v 7.76244 c 0,1.31472 0.223782,2.3637 0.671345,3.14693 0.475537,0.78323 1.412623,1.17485 2.81126,1.17485 0.671345,0 1.356677,-0.0559 2.055996,-0.16783 0.727291,-0.13987 1.38465,-0.32169 1.972077,-0.54547 l 0.881142,4.86726 c -0.755264,0.3077 -1.594446,0.57344 -2.517546,0.79722 -0.923101,0.22378 -2.055996,0.33567 -3.398687,0.33567 -1.706337,0 -3.11896,-0.22378 -4.237869,-0.67134 -1.118909,-0.47554 -2.014037,-1.11891 -2.685383,-1.93012 -0.671345,-0.83919 -1.146882,-1.84621 -1.426609,-3.02106 -0.251755,-1.17485 -0.377632,-2.47558 -0.377632,-3.90219 z"
       id="path972" />
    <path
       style="color:#000000;font-style:normal;font-variant:normal;font-weight:bold;font-stretch:normal;font-size:41.9591px;line-height:0.85;font-family:Ubuntu;-inkscape-font-specification:'Ubuntu Bold';font-variant-ligatures:normal;font-variant-position:normal;font-variant-caps:normal;font-variant-numeric:normal;font-variant-alternates:normal;font-variant-east-asian:normal;font-feature-settings:normal;font-variation-settings:normal;text-indent:0;text-align:center;text-decoration:none;text-decoration-line:none;text-decoration-style:solid;text-decoration-color:#000000;letter-spacing:-0.0314694px;word-spacing:0px;text-transform:none;writing-mode:lr-tb;direction:ltr;text-orientation:mixed;dominant-baseline:auto;baseline-shift:baseline;text-anchor:middle;white-space:normal;shape-padding:0;shape-margin:0;inline-size:0;clip-rule:nonzero;display:inline;overflow:visible;visibility:visible;isolation:auto;mix-blend-mode:normal;color-interpolation:sRGB;color-interpolation-filters:linearRGB;solid-color:#000000;solid-opacity:1;vector-effect:none;fill:#7137c8;fill-opacity:1;fill-rule:nonzero;stroke:none;stroke-width:9.3764;stroke-linecap:butt;stroke-linejoin:miter;stroke-miterlimit:4;stroke-dasharray:none;stroke-dashoffset:0;stroke-opacity:1;paint-order:stroke markers fill;color-rendering:auto;image-rendering:auto;shape-rendering:auto;text-rendering:auto;enable-background:accumulate;stop-color:#000000"
       d="m 75.865234,141.67773 v 16.98047 c 0,1.82886 0.185292,3.58862 0.595704,5.26758 0.447242,1.82963 1.25434,3.5762 2.423828,5.06055 l 0.02148,0.0293 0.02148,0.0273 c 1.272184,1.56576 2.968394,2.73085 4.800782,3.48047 l 0.01758,0.006 0.01758,0.008 c 2.003709,0.80148 4.145443,1.08984 6.439453,1.08984 2.072248,0 4.083381,-0.15831 6.027344,-0.48047 1.789472,-0.26981 3.320845,-0.57067 4.675785,-0.96289 l 3.38477,-0.98047 v -3.52343 -26.00196 H 91.492188 88.662109 Z"
       id="path976" />
    <path
       style="color:#000000;font-style:normal;font-variant:normal;font-weight:bold;font-stretch:normal;font-size:41.9591px;line-height:0.85;font-family:Ubuntu;-inkscape-font-specification:'Ubuntu Bold';font-variant-ligatures:normal;font-variant-position:normal;font-variant-caps:normal;font-variant-numeric:normal;font-variant-alternates:normal;font-variant-east-asian:normal;font-feature-settings:normal;font-variation-settings:normal;text-indent:0;text-align:center;text-decoration:none;text-decoration-line:none;text-decoration-style:solid;text-decoration-color:#000000;letter-spacing:-0.0314694px;word-spacing:0px;text-transform:none;writing-mode:lr-tb;direction:ltr;text-orientation:mixed;dominant-baseline:auto;baseline-shift:baseline;text-anchor:middle;white-space:normal;shape-padding:0;shape-margin:0;inline-size:0;clip-rule:nonzero;display:inline;overflow:visible;visibility:visible;isolation:auto;mix-blend-mode:normal;color-interpolation:sRGB;color-interpolation-filters:linearRGB;solid-color:#000000;solid-opacity:1;vector-effect:none;fill:#c6afe9;fill-opacity:1;fill-rule:nonzero;stroke:none;stroke-width:9.3764;stroke-linecap:butt;stroke-linejoin:miter;stroke-miterlimit:4;stroke-dasharray:none;stroke-dashoffset:0;stroke-opacity:1;paint-order:stroke markers fill;color-rendering:auto;image-rendering:auto;shape-rendering:auto;text-rendering:auto;enable-background:accumulate;stop-color:#000000"
       d="m 99.602246,167.6803 c -1.062964,0.3077 -2.433628,0.58743 -4.111992,0.83918 -1.678363,0.27973 -3.440645,0.41959 -5.286846,0.41959 -1.874173,0 -3.440646,-0.25175 -4.699419,-0.75526 -1.2308,-0.50351 -2.209846,-1.20283 -2.937137,-2.09796 -0.727291,-0.9231 -1.244787,-2.01404 -1.552487,-3.27281 -0.3077,-1.25877 -0.46155,-2.64342 -0.46155,-4.15395 v -12.29401 h 6.251906 v 11.53875 c 0,2.01403 0.265741,3.46861 0.797223,4.36374 0.531482,0.89513 1.524514,1.3427 2.979096,1.3427 0.447563,0 0.9231,-0.014 1.426609,-0.042 0.503509,-0.0559 0.951073,-0.11188 1.342691,-0.16784 v -17.03539 h 6.251906 z"
       id="path978" />
    <path
       style="color:#000000;font-style:normal;font-variant:normal;font-weight:bold;font-stretch:normal;font-size:41.9591px;line-height:0.85;font-family:Ubuntu;-inkscape-font-specification:'Ubuntu Bold';font-variant-ligatures:normal;font-variant-position:normal;font-variant-caps:normal;font-variant-numeric:normal;font-variant-alternates:normal;font-variant-east-asian:normal;font-feature-settings:normal;font-variation-settings:normal;text-indent:0;text-align:center;text-decoration:none;text-decoration-line:none;text-decoration-style:solid;text-decoration-color:#000000;letter-spacing:-0.0314694px;word-spacing:0px;text-transform:none;writing-mode:lr-tb;direction:ltr;text-orientation:mixed;dominant-baseline:auto;baseline-shift:baseline;text-anchor:middle;white-space:normal;shape-padding:0;shape-margin:0;inline-size:0;clip-rule:nonzero;display:inline;overflow:visible;visibility:visible;isolation:auto;mix-blend-mode:normal;color-interpolation:sRGB;color-interpolation-filters:linearRGB;solid-color:#000000;solid-opacity:1;vector-effect:none;fill:#7137c8;fill-opacity:1;fill-rule:nonzero;stroke:none;stroke-width:9.3764;stroke-linecap:butt;stroke-linejoin:miter;stroke-miterlimit:4;stroke-dasharray:none;stroke-dashoffset:0;stroke-opacity:1;paint-order:stroke markers fill;color-rendering:auto;image-rendering:auto;shape-rendering:auto;text-rendering:auto;enable-background:accumulate;stop-color:#000000"
       d="m 129.63672,130.37109 -15.62695,2.51758 v 8.35156 c -1.99841,0.0316 -3.96205,0.37491 -5.77149,1.15625 l -0.0195,0.008 -0.0176,0.008 c -1.83539,0.81099 -3.4848,2.05402 -4.76953,3.5957 -1.28392,1.54071 -2.20423,3.35381 -2.80469,5.29883 -0.61316,1.95833 -0.882809,4.04126 -0.882809,6.21875 0,2.20877 0.316339,4.34582 1.021479,6.34375 l 0.0195,0.0527 0.0195,0.0527 c 0.73831,1.94294 1.84743,3.73013 3.28711,5.21094 l 0.0215,0.0234 0.0234,0.0234 c 1.48419,1.48419 3.30678,2.60598 5.28711,3.34375 2.03719,0.75895 4.22888,1.09375 6.5039,1.09375 0.91546,0 1.84601,-0.0539 2.79102,-0.15039 0.90372,-0.0632 1.79125,-0.15182 2.65625,-0.27539 0.87649,-0.12129 1.71977,-0.25839 2.5293,-0.41406 l 0.0859,-0.0176 0.084,-0.0195 c 0.80426,-0.18561 1.53963,-0.37518 2.22266,-0.58008 l 3.33984,-1.00195 v -3.48828 z m -11.94336,11.22461 0.043,0.0117 c -0.005,-0.001 -0.009,-8.3e-4 -0.0137,-0.002 -0.01,-0.002 -0.0193,-0.007 -0.0293,-0.01 z m 0.63476,5.31055 0.0508,0.0137 c -0.009,-0.002 -0.0184,-0.001 -0.0273,-0.004 -0.008,-0.002 -0.0156,-0.008 -0.0234,-0.01 z"
       id="path982" />
    <path
       style="color:#000000;font-style:normal;font-variant:normal;font-weight:bold;font-stretch:normal;font-size:41.9591px;line-height:0.85;font-family:Ubuntu;-inkscape-font-specification:'Ubuntu Bold';font-variant-ligatures:normal;font-variant-position:normal;font-variant-caps:normal;font-variant-numeric:normal;font-variant-alternates:normal;font-variant-east-asian:normal;font-feature-settings:normal;font-variation-settings:normal;text-indent:0;text-align:center;text-decoration:none;text-decoration-line:none;text-decoration-style:solid;text-decoration-color:#000000;letter-spacing:-0.0314694px;word-spacing:0px;text-transform:none;writing-mode:lr-tb;direction:ltr;text-orientation:mixed;dominant-baseline:auto;baseline-shift:baseline;text-anchor:middle;white-space:normal;shape-padding:0;shape-margin:0;inline-size:0;clip-rule:nonzero;display:inline;overflow:visible;visibility:visible;isolation:auto;mix-blend-mode:normal;color-interpolation:sRGB;color-interpolation-filters:linearRGB;solid-color:#000000;solid-opacity:1;vector-effect:none;fill:#c6afe9;fill-opacity:1;fill-rule:nonzero;stroke:none;stroke-width:9.3764;stroke-linecap:butt;stroke-linejoin:miter;stroke-miterlimit:4;stroke-dasharray:none;stroke-dashoffset:0;stroke-opacity:1;paint-order:stroke markers fill;color-rendering:auto;image-rendering:auto;shape-rendering:auto;text-rendering:auto;enable-background:accumulate;stop-color:#000000"
       d="m 110.80926,157.23248 c 0,1.93012 0.43358,3.48261 1.30073,4.65746 0.86715,1.17485 2.1539,1.76228 3.86024,1.76228 0.55945,0 1.07695,-0.014 1.55248,-0.0419 0.47554,-0.0559 0.86716,-0.11188 1.17486,-0.16784 v -11.37092 c -0.39162,-0.25175 -0.90912,-0.46155 -1.55249,-0.62938 -0.6154,-0.16784 -1.24479,-0.25176 -1.88816,-0.25176 -2.96511,0 -4.44766,2.01404 -4.44766,6.04211 z m 14.14021,10.48978 c -0.55945,0.16783 -1.20282,0.33567 -1.93011,0.50351 -0.72729,0.13986 -1.49654,0.26574 -2.30775,0.37763 -0.78324,0.11189 -1.59445,0.1958 -2.43363,0.25175 -0.81121,0.0839 -1.59445,0.12588 -2.34971,0.12588 -1.81823,0 -3.44065,-0.26574 -4.86726,-0.79722 -1.42661,-0.53149 -2.62943,-1.28675 -3.60848,-2.26579 -0.97905,-1.00702 -1.73431,-2.20985 -2.26579,-3.60849 -0.50351,-1.42661 -0.75526,-3.02105 -0.75526,-4.78333 0,-1.79026 0.22378,-3.39869 0.67134,-4.8253 0.44757,-1.45458 1.09094,-2.68538 1.93012,-3.6924 0.83918,-1.00702 1.86018,-1.77627 3.06301,-2.30775 1.2308,-0.53148 2.62944,-0.79722 4.19591,-0.79722 0.86716,0 1.63641,0.0839 2.30775,0.25175 0.69932,0.16784 1.39864,0.40561 2.09796,0.71331 v -9.98627 l 6.2519,-1.00702 z"
       id="path984" />
    <path
       style="color:#000000;font-style:normal;font-variant:normal;font-weight:bold;font-stretch:normal;font-size:41.9591px;line-height:0.85;font-family:Ubuntu;-inkscape-font-specification:'Ubuntu Bold';font-variant-ligatures:normal;font-variant-position:normal;font-variant-caps:normal;font-variant-numeric:normal;font-variant-alternates:normal;font-variant-east-asian:normal;font-feature-settings:normal;font-variation-settings:normal;text-indent:0;text-align:center;text-decoration:none;text-decoration-line:none;text-decoration-style:solid;text-decoration-color:#000000;letter-spacing:-0.0314694px;word-spacing:0px;text-transform:none;writing-mode:lr-tb;direction:ltr;text-orientation:mixed;dominant-baseline:auto;baseline-shift:baseline;text-anchor:middle;white-space:normal;shape-padding:0;shape-margin:0;inline-size:0;clip-rule:nonzero;display:inline;overflow:visible;visibility:visible;isolation:auto;mix-blend-mode:normal;color-interpolation:sRGB;color-interpolation-filters:linearRGB;solid-color:#000000;solid-opacity:1;vector-effect:none;fill:#7137c8;fill-opacity:1;fill-rule:nonzero;stroke:none;stroke-width:9.3764;stroke-linecap:butt;stroke-linejoin:miter;stroke-miterlimit:4;stroke-dasharray:none;stroke-dashoffset:0;stroke-opacity:1;paint-order:stroke markers fill;color-rendering:auto;image-rendering:auto;shape-rendering:auto;text-rendering:auto;enable-background:accumulate;stop-color:#000000"
       d="m 133.87695,131.60742 c -2.04741,0 -4.2255,0.8324 -5.7539,2.18946 -1.75928,1.55967 -2.66797,4.05371 -2.66797,6.18945 0,1.01831 0.23216,2.10855 0.6289,3.14258 v 29.99414 h 15.62891 v -4.6875 -25.63282 c 0.32613,-0.935 0.58594,-1.90212 0.58594,-2.8164 0,-2.15026 -0.97092,-4.64522 -2.73242,-6.18555 -1.5168,-1.36015 -3.6756,-2.19336 -5.68946,-2.19336 z m 0,7.38477 c -0.009,0 0.36875,0.13067 0.39649,0.15429 l 0.14062,0.12305 c 0.25043,0.23117 0.41602,0.87268 0.41602,0.7168 0,-0.15517 -0.18264,0.54697 -0.48828,0.82226 -0.0274,0.0193 -0.43047,0.17383 -0.46485,0.17383 -0.0296,0 -0.34821,-0.1261 -0.49218,-0.20117 -0.248,-0.30255 -0.46094,-0.90069 -0.46094,-0.79492 0,0.11777 0.20391,-0.56603 0.43945,-0.77539 l 0.01,-0.008 c 0.077,-0.0681 0.51251,-0.21093 0.5039,-0.21093 z"
       id="path988" />
    <path
       style="color:#000000;font-style:normal;font-variant:normal;font-weight:bold;font-stretch:normal;font-size:41.9591px;line-height:0.85;font-family:Ubuntu;-inkscape-font-specification:'Ubuntu Bold';font-variant-ligatures:normal;font-variant-position:normal;font-variant-caps:normal;font-variant-numeric:normal;font-variant-alternates:normal;font-variant-east-asian:normal;font-feature-settings:normal;font-variation-settings:normal;text-indent:0;text-align:center;text-decoration:none;text-decoration-line:none;text-decoration-style:solid;text-decoration-color:#000000;letter-spacing:-0.0314694px;word-spacing:0px;text-transform:none;writing-mode:lr-tb;direction:ltr;text-orientation:mixed;dominant-baseline:auto;baseline-shift:baseline;text-anchor:middle;white-space:normal;shape-padding:0;shape-margin:0;inline-size:0;clip-rule:nonzero;display:inline;overflow:visible;visibility:visible;isolation:auto;mix-blend-mode:normal;color-interpolation:sRGB;color-interpolation-filters:linearRGB;solid-color:#000000;solid-opacity:1;vector-effect:none;fill:#c6afe9;fill-opacity:1;fill-rule:nonzero;stroke:none;stroke-width:9.3764;stroke-linecap:butt;stroke-linejoin:miter;stroke-miterlimit:4;stroke-dasharray:none;stroke-dashoffset:0;stroke-opacity:1;paint-order:stroke markers fill;color-rendering:auto;image-rendering:auto;shape-rendering:auto;text-rendering:auto;enable-background:accumulate;stop-color:#000000"
       d="m 137.02386,168.43556 h -6.2519 v -22.07048 h 6.2519 z m 0.58743,-28.44827 c 0,1.14689 -0.37763,2.056 -1.1329,2.72734 -0.72729,0.64337 -1.59444,0.96506 -2.60146,0.96506 -1.00702,0 -1.88816,-0.32169 -2.64342,-0.96506 -0.72729,-0.67134 -1.09094,-1.58045 -1.09094,-2.72734 0,-1.14688 0.36365,-2.04201 1.09094,-2.68538 0.75526,-0.67135 1.6364,-1.00702 2.64342,-1.00702 1.00702,0 1.87417,0.33567 2.60146,1.00702 0.75527,0.64337 1.1329,1.5385 1.1329,2.68538 z"
       id="path990" />
    <path
       style="color:#000000;font-style:normal;font-variant:normal;font-weight:bold;font-stretch:normal;font-size:41.9591px;line-height:0.85;font-family:Ubuntu;-inkscape-font-specification:'Ubuntu Bold';font-variant-ligatures:normal;font-variant-position:normal;font-variant-caps:normal;font-variant-numeric:normal;font-variant-alternates:normal;font-variant-east-asian:normal;font-feature-settings:normal;font-variation-settings:normal;text-indent:0;text-align:center;text-decoration:none;text-decoration-line:none;text-decoration-style:solid;text-decoration-color:#000000;letter-spacing:-0.0314694px;word-spacing:0px;text-transform:none;writing-mode:lr-tb;direction:ltr;text-orientation:mixed;dominant-baseline:auto;baseline-shift:baseline;text-anchor:middle;white-space:normal;shape-padding:0;shape-margin:0;inline-size:0;clip-rule:nonzero;display:inline;overflow:visible;visibility:visible;isolation:auto;mix-blend-mode:normal;color-interpolation:sRGB;color-interpolation-filters:linearRGB;solid-color:#000000;solid-opacity:1;vector-effect:none;fill:#7137c8;fill-opacity:1;fill-rule:nonzero;stroke:none;stroke-width:9.3764;stroke-linecap:butt;stroke-linejoin:miter;stroke-miterlimit:4;stroke-dasharray:none;stroke-dashoffset:0;stroke-opacity:1;paint-order:stroke markers fill;color-rendering:auto;image-rendering:auto;shape-rendering:auto;text-rendering:auto;enable-background:accumulate;stop-color:#000000"
       d="m 152.6875,141.08984 c -2.12459,0 -4.22583,0.39081 -6.16602,1.19922 l -0.0176,0.008 -0.0156,0.006 c -1.86146,0.79211 -3.5591,1.94857 -4.9668,3.39649 l -0.0234,0.0234 -0.0234,0.0254 c -1.3948,1.47685 -2.46847,3.24001 -3.2207,5.1582 l -0.0156,0.0371 -0.0137,0.0371 c -0.74845,2.00901 -1.0918,4.16374 -1.0918,6.37695 0,2.21321 0.34443,4.37386 1.08203,6.39258 l 0.004,0.0137 0.006,0.0156 c 0.72138,1.93633 1.78124,3.72172 3.16406,5.22656 l 0.0215,0.0234 0.0234,0.0234 c 1.39394,1.47593 3.09822,2.64852 4.97071,3.44532 l 0.0156,0.006 0.0176,0.008 c 1.96152,0.8173 4.08871,1.19922 6.25,1.19922 2.17528,0 4.30806,-0.37668 6.26953,-1.20899 1.89448,-0.79229 3.62227,-1.96147 5.02735,-3.44922 l 0.0215,-0.0234 0.0215,-0.0234 c 1.39831,-1.52169 2.45893,-3.34002 3.15235,-5.30469 l 0.004,-0.0117 0.004,-0.0137 c 0.69191,-1.99886 1.01367,-4.13036 1.01367,-6.31836 0,-2.21321 -0.34334,-4.36794 -1.09179,-6.37695 -0.72488,-1.94573 -1.79843,-3.73889 -3.20899,-5.23242 -1.40508,-1.48774 -3.13286,-2.65693 -5.02734,-3.44922 -1.93943,-0.82298 -4.0476,-1.20899 -6.18555,-1.20899 z m -7.12305,9.00196 c -0.005,0.007 -0.005,0.0148 -0.01,0.0215 -0.007,0.009 -0.0169,0.0161 -0.0234,0.0254 z m 14.20508,0 0.0762,0.11132 c -0.014,-0.0207 -0.0366,-0.0361 -0.0508,-0.0566 -0.012,-0.017 -0.0132,-0.0377 -0.0254,-0.0547 z"
       id="path994" />
    <path
       style="color:#000000;font-style:normal;font-variant:normal;font-weight:bold;font-stretch:normal;font-size:41.9591px;line-height:0.85;font-family:Ubuntu;-inkscape-font-specification:'Ubuntu Bold';font-variant-ligatures:normal;font-variant-position:normal;font-variant-caps:normal;font-variant-numeric:normal;font-variant-alternates:normal;font-variant-east-asian:normal;font-feature-settings:normal;font-variation-settings:normal;text-indent:0;text-align:center;text-decoration:none;text-decoration-line:none;text-decoration-style:solid;text-decoration-color:#000000;letter-spacing:-0.0314694px;word-spacing:0px;text-transform:none;writing-mode:lr-tb;direction:ltr;text-orientation:mixed;dominant-baseline:auto;baseline-shift:baseline;text-anchor:middle;white-space:normal;shape-padding:0;shape-margin:0;inline-size:0;clip-rule:nonzero;display:inline;overflow:visible;visibility:visible;isolation:auto;mix-blend-mode:normal;color-interpolation:sRGB;color-interpolation-filters:linearRGB;solid-color:#000000;solid-opacity:1;vector-effect:none;fill:#c6afe9;fill-opacity:1;fill-rule:nonzero;stroke:none;stroke-width:9.3764;stroke-linecap:butt;stroke-linejoin:miter;stroke-miterlimit:4;stroke-dasharray:none;stroke-dashoffset:0;stroke-opacity:1;paint-order:stroke markers fill;color-rendering:auto;image-rendering:auto;shape-rendering:auto;text-rendering:auto;enable-background:accumulate;stop-color:#000000"
       d="m 163.51316,157.35836 c 0,1.73431 -0.25175,3.32875 -0.75526,4.78334 -0.50351,1.42661 -1.23081,2.65741 -2.18188,3.6924 -0.95107,1.00702 -2.09795,1.79026 -3.44064,2.34971 -1.31472,0.55945 -2.79728,0.83918 -4.44767,0.83918 -1.62241,0 -3.10497,-0.27973 -4.44766,-0.83918 -1.31472,-0.55945 -2.44762,-1.34269 -3.39869,-2.34971 -0.95107,-1.03499 -1.69235,-2.26579 -2.22383,-3.6924 -0.53148,-1.45459 -0.79722,-3.04903 -0.79722,-4.78334 0,-1.73431 0.26574,-3.31477 0.79722,-4.74138 0.55945,-1.42661 1.31472,-2.64342 2.26579,-3.65044 0.97905,-1.00702 2.12593,-1.79026 3.44065,-2.34971 1.34269,-0.55945 2.79727,-0.83918 4.36374,-0.83918 1.59445,0 3.04903,0.27973 4.36375,0.83918 1.34269,0.55945 2.48958,1.34269 3.44065,2.34971 0.95107,1.00702 1.69235,2.22383 2.22383,3.65044 0.53148,1.42661 0.79722,3.00707 0.79722,4.74138 z m -6.37778,0 c 0,-1.93012 -0.39162,-3.44065 -1.17486,-4.53158 -0.75526,-1.11891 -1.8462,-1.67837 -3.27281,-1.67837 -1.42661,0 -2.53153,0.55946 -3.31476,1.67837 -0.78324,1.09093 -1.17486,2.60146 -1.17486,4.53158 0,1.93012 0.39162,3.46862 1.17486,4.6155 0.78323,1.11891 1.88815,1.67836 3.31476,1.67836 1.42661,0 2.51755,-0.55945 3.27281,-1.67836 0.78324,-1.14688 1.17486,-2.68538 1.17486,-4.6155 z"
       id="path996" />
  </g>
</svg>
